<?xml version="1.0" encoding="iso-8859-1"?>
<!-- Generator: Adobe Illustrator 19.0.0, SVG Export Plug-In . SVG Version: 6.00 Build 0)  -->
<svg version="1.1" id="Capa_1" xmlns="http://www.w3.org/2000/svg" xmlns:xlink="http://www.w3.org/1999/xlink" x="0px" y="0px"
	 viewBox="0 0 512 512" style="enable-background:new 0 0 512 512;" xml:space="preserve">
<g>
	<g>
		<path d="M392,0H120c-8.837,0-16,7.163-16,16v480c0,8.837,7.163,16,16,16h272c8.837,0,16-7.163,16-16V16C408,7.163,400.837,0,392,0
			z M392,496H120V16h272V496z"/>
	</g>
</g>
<g>
	<g>
		<rect x="112" y="80" width="288" height="16"/>
	</g>
</g>
<g>
	<g>
		<rect x="112" y="400" width="288" height="16"/>
	</g>
</g>
<g>
	<g>
		<path d="M256,432c-13.255,0-24,10.745-24,24s10.745,24,24,24s24-10.745,24-24S269.255,432,256,432z M256,464c-4.418,0-8-3.582-8-8
			c0-4.418,3.582-8,8-8c4.418,0,8,3.582,8,8C264,460.418,260.418,464,256,464z"/>
	</g>
</g>
<g>
	<g>
		<rect x="288" y="40" width="16" height="16"/>
	</g>
</g>
<g>
	<g>
		<rect x="208" y="40" width="64" height="16"/>
	</g>
</g>
<g>
	<g>
		<rect x="320" y="40" width="16" height="16"/>
	</g>
</g>
<g>
	<g>
		<path d="M368,112H144c-4.418,0-8,3.582-8,8v256c0,4.418,3.582,8,8,8h224c4.418,0,8-3.582,8-8V120C376,115.582,372.418,112,368,112
			z M360,368H152V128h208V368z"/>
	</g>
</g>
<g>
	<g>
		
			<rect x="173.764" y="252.004" transform="matrix(0.7071 -0.7071 0.7071 0.7071 -114.7312 243.0222)" width="124.449" height="16"/>
	</g>
</g>
<g>
	<g>
		<rect x="292.689" y="183.993" transform="matrix(0.7071 -0.7071 0.7071 0.7071 -46.72 271.1947)" width="22.624" height="16"/>
	</g>
</g>
<g>
	<g>
		<rect x="228.406" y="276.038" transform="matrix(0.7071 -0.7071 0.7071 0.7071 -122.3498 272.6985)" width="79.189" height="16"/>
	</g>
</g>
<g>
</g>
<g>
</g>
<g>
</g>
<g>
</g>
<g>
</g>
<g>
</g>
<g>
</g>
<g>
</g>
<g>
</g>
<g>
</g>
<g>
</g>
<g>
</g>
<g>
</g>
<g>
</g>
<g>
</g>
</svg>
